<?xml version="1.0" encoding="UTF-8" standalone="no"?>
<!-- Created with Inkscape (http://www.inkscape.org/) -->

<svg
   xmlns:dc="http://purl.org/dc/elements/1.1/"
   xmlns:cc="http://creativecommons.org/ns#"
   xmlns:rdf="http://www.w3.org/1999/02/22-rdf-syntax-ns#"
   xmlns:svg="http://www.w3.org/2000/svg"
   xmlns="http://www.w3.org/2000/svg"
   version="1.1"
   width="892.91339"
   height="272.48032"
   id="svg18276"
   xml:space="preserve"><metadata
     id="metadata18282"><rdf:RDF><cc:Work
         rdf:about=""><dc:format>image/svg+xml</dc:format><dc:type
           rdf:resource="http://purl.org/dc/dcmitype/StillImage" /><dc:title></dc:title></cc:Work></rdf:RDF></metadata><defs
     id="defs18280" /><g
     transform="matrix(1.25,0,0,-1.25,-103.64457,634.68614)"
     id="g18284"><path
       d="m 206.70361,368.86736 -29.53847,0 c -4.40385,0 -8.08077,1.475 -10.35577,4.15192 -2.35385,2.77692 -3.21346,6.78654 -2.40769,11.3077 l 4.76154,26.94808 c 1.75192,9.92885 10.54231,17.36923 20.475,17.36923 l 28.76347,0 c 13.90962,0 25.73462,9.975 28.11154,23.70962 l 4.75962,26.96732 c 1.25192,7.00961 -0.29423,13.50769 -4.37308,18.29615 -3.99231,4.7077 -10.025,7.29231 -16.99808,7.29231 l -28.76154,0 c -13.91155,0 -25.73655,-9.96731 -28.12309,-23.70193 l -4.74231,-26.97308 c -1.71538,-9.9 -10.50577,-17.35192 -20.47115,-17.35192 l -28.76539,0 c -13.9077,0 -25.734623,-9.98078 -28.109633,-23.72501 l -4.74807,-26.93077 c -1.26539,-7.00193 0.28269,-13.49808 4.35384,-18.30385 4,-4.70962 10.032703,-7.29808 17.001933,-7.29808 l 28.76539,0 c 4.39039,0 8.06731,-1.46923 10.34039,-4.15962 2.35384,-2.77308 3.20384,-6.78462 2.39808,-11.30577 l -4.74231,-26.95577 c -1.2577,-7.00193 0.2923,-13.5077 4.36731,-18.30962 3.9923,-4.70577 10.03077,-7.29039 17.00192,-7.29039 l 29.52693,0 c 13.9077,0 25.73654,9.975 28.10962,23.7327 l 4.76539,26.92308 c 1.24615,7.01539 -0.30962,13.52885 -4.39039,18.31923 -3.99038,4.70001 -10.02308,7.28847 -16.975,7.28847 m 159.71542,63.40963 -71.95194,0 c -31.48655,0 -51.0904,-10.65962 -55.34424,-34.76155 -4.25385,-24.09808 13.23269,-33.69808 43.51924,-33.69808 l 74.73655,0 c 0.72308,0 1.40962,0.58269 1.53462,1.30384 l 2.52692,14.31731 c 0.13269,0.72308 -0.35385,1.30962 -1.07116,1.30962 l -68.39424,0 c -18.4827,0 -19.52885,6.03077 -17.92693,15.06923 2.37308,13.4827 9.62693,19.75001 25.35385,19.75001 l 64.0654,0 c 0.725,0 1.41154,0.58269 1.53462,1.30192 l 2.49038,14.10385 c 0.125,0.72308 -0.35577,1.30385 -1.07307,1.30385 m 142.16733,0 -31.48847,0 c -0.71923,0 -1.40384,-0.58077 -1.53461,-1.30385 l -6.66731,-37.8077 c -2.26923,-12.87308 -12.43846,-13.44039 -21.125,-13.44039 l -25.10962,0.006 c -15.53078,0 -17.3077,5.35769 -16.09232,12.26731 l 6.87308,38.97501 c 0.125,0.72308 -0.35384,1.30385 -1.07307,1.30385 l -31.47501,0 c -0.72116,0 -1.40577,-0.58077 -1.53654,-1.30385 l -6.97692,-38.98078 c -4.07693,-23.11923 11.80192,-29.525 40.10962,-29.525 l 41.32885,0 c 39.14809,0 45.95386,12.73077 48.70963,28.35577 l 7.12885,40.15001 c 0.12692,0.72308 -0.35385,1.30385 -1.07116,1.30385 m 112.97118,0 -97.00771,0 c -0.71923,0 -1.40193,-0.58077 -1.5327,-1.30385 l -11.61154,-65.84809 c -0.12307,-0.725 0.35385,-1.30769 1.07885,-1.30769 l 98.42694,0 c 18.9077,0 34.29809,2.6 37.50386,20.80192 1.78269,10.12116 -1.55769,16.31731 -10.5327,17.25385 6.35,0.95193 10.21154,4.62116 11.59424,12.45962 1.1673,6.57116 2.44038,17.94424 -27.91924,17.94424 m -6.35962,-47.13848 c -0.80577,-4.57307 -4.87115,-5.44038 -8.63269,-5.44038 l -59.0654,0 2.08462,11.81731 58.06924,0 c 6.07885,0 8.11539,-3.15192 7.54423,-6.37693 m 2.325,25.11347 c -0.77307,-4.40385 -4.72692,-5.30385 -8.375,-5.30385 l -57.19232,0 1.94808,11.06924 56.23463,0 c 5.89231,0 7.93269,-2.65385 7.38461,-5.76539 m 175.80004,22.02501 -98.88079,0 c -17.84231,0 -28.49039,-5.44808 -30.71924,-18.08655 l -5.68269,-32.22885 c -2.23462,-12.64423 6.48269,-18.14423 24.33077,-18.14423 l 101.19233,0 c 0.71923,0 1.40385,0.58269 1.53654,1.30384 l 2.52116,14.31731 c 0.125,0.72308 -0.35385,1.30962 -1.07308,1.30962 l -88.75771,0 c -3.71154,0 -5.91731,2.24808 -5.13846,6.68654 l 0.71923,4.08077 87.11924,0 c 0.72116,0 1.40577,0.58846 1.53847,1.30577 l 1.90384,10.81539 0,0.008 c 0.12693,0.71731 -0.35769,1.30384 -1.07692,1.30384 l -87.1154,0 0.70769,3.98654 c 0.77885,4.43847 3.76731,6.6327 7.48462,6.6327 l 86.43848,0 c 0.7173,0 1.40577,0.58269 1.53461,1.30192 l 2.48462,14.10385 c 0.13077,0.72308 -0.35,1.30385 -1.06731,1.30385"
       id="path18310"
       style="fill:#000000;fill-opacity:1;fill-rule:nonzero;stroke:none" /></g></svg>